<?xml version="1.0" standalone="no"?>
<!DOCTYPE svg PUBLIC "-//W3C//DTD SVG 20010904//EN"
 "http://www.w3.org/TR/2001/REC-SVG-20010904/DTD/svg10.dtd">
<svg version="1.0" xmlns="http://www.w3.org/2000/svg"
 width="512.000000pt" height="512.000000pt" viewBox="0 0 512.000000 512.000000"
 preserveAspectRatio="xMidYMid meet">

<g transform="translate(0.000000,512.000000) scale(0.100000,-0.100000)"
fill="#000000" stroke="none">
<path d="M1990 5113 c-194 -32 -359 -174 -432 -369 -21 -56 -22 -77 -26 -417
-3 -325 -5 -359 -20 -364 -206 -69 -326 -253 -292 -445 28 -151 142 -278 285
-317 40 -11 40 -12 68 -99 16 -49 47 -120 69 -158 49 -83 203 -239 271 -274
l47 -25 0 -205 c0 -171 -3 -209 -16 -228 -21 -31 -456 -247 -514 -257 -437
-70 -760 -315 -916 -698 -71 -174 -76 -217 -81 -652 -6 -455 -4 -475 62 -541
25 -24 59 -47 81 -53 22 -6 123 -11 225 -11 208 0 223 4 235 67 5 26 1 37 -19
57 l-26 26 -185 0 c-200 0 -209 2 -222 56 -4 14 -4 190 -1 392 6 406 11 449
72 600 64 157 168 297 298 400 59 47 146 102 160 102 4 0 7 -137 7 -305 l0
-305 -33 0 c-102 0 -209 -69 -253 -165 -22 -47 -24 -62 -24 -229 0 -162 2
-182 21 -215 35 -61 63 -76 157 -80 99 -4 122 9 122 70 0 52 -35 79 -101 79
l-49 0 0 149 c0 138 2 150 23 182 31 47 72 58 212 58 140 0 181 -11 212 -58
21 -32 23 -44 23 -182 l0 -149 -49 0 c-66 0 -101 -27 -101 -79 0 -61 23 -74
122 -70 88 4 113 15 154 68 17 23 19 46 22 214 3 180 2 190 -21 240 -44 96
-125 153 -233 164 l-54 6 0 337 0 337 38 11 c63 19 163 32 245 32 74 0 81 -2
120 -34 131 -106 352 -228 508 -280 386 -129 797 -32 1172 277 l48 39 162 -5
c89 -3 172 -8 185 -12 l22 -7 0 -343 0 -342 -38 -11 c-91 -27 -183 -118 -218
-213 -23 -65 -20 -172 7 -244 30 -81 112 -164 192 -193 173 -65 367 14 443
180 23 52 28 77 29 143 0 71 -4 88 -33 147 -39 79 -99 137 -178 169 l-54 23 0
318 c0 175 3 318 6 318 4 0 39 -16 78 -36 260 -132 450 -381 513 -674 16 -74
18 -135 18 -468 0 -368 -1 -384 -19 -398 -17 -12 -254 -14 -1631 -14 l-1612 0
-21 -23 c-29 -31 -28 -72 3 -102 l24 -25 1613 0 c1114 0 1625 3 1652 11 59 16
121 85 136 150 16 70 8 798 -10 879 -23 111 -53 197 -101 295 -112 229 -295
408 -533 521 -110 52 -206 78 -348 95 -101 12 -106 14 -324 121 -122 60 -232
120 -245 134 -23 25 -24 30 -27 228 l-3 203 67 44 c158 102 277 260 330 434
21 72 27 78 84 94 97 27 195 115 242 217 19 41 23 66 23 154 0 93 -3 112 -27
162 -47 101 -140 183 -241 213 l-42 12 -3 111 c-3 106 -4 112 -29 132 -29 23
-42 24 -76 9 -26 -12 -47 -47 -47 -79 0 -20 -13 -20 -846 -20 l-845 0 3 268
c3 242 5 272 24 318 46 114 122 190 234 236 54 23 63 23 550 26 345 2 513 0
555 -8 126 -24 235 -110 291 -227 21 -45 28 -78 33 -166 7 -98 10 -112 30
-129 30 -24 72 -23 99 2 20 19 22 31 22 123 0 86 -5 115 -28 183 -48 136 -140
244 -263 309 -119 62 -145 65 -709 63 -278 0 -516 -3 -530 -5z m1378 -1520
c-4 -416 -2 -399 -74 -549 -43 -88 -177 -219 -274 -266 -139 -68 -170 -73
-495 -73 -251 0 -299 2 -355 18 -222 63 -387 219 -457 431 -26 80 -26 84 -31
449 l-4 367 847 0 846 0 -3 -377z m-1840 -129 l-3 -116 -50 34 c-150 100 -139
330 20 412 l30 16 3 -115 c1 -63 1 -167 0 -231z m2058 314 c114 -77 138 -237
53 -346 -26 -33 -98 -84 -110 -76 -12 7 -12 454 0 454 5 0 30 -15 57 -32z
m-1366 -1218 c133 -21 591 -11 692 15 l26 7 4 -189 c3 -176 5 -191 27 -235 34
-67 55 -83 202 -158 l131 -67 -28 -27 c-53 -50 -208 -153 -299 -199 -188 -94
-369 -130 -547 -109 -112 13 -267 61 -376 116 -76 38 -312 193 -312 204 0 4
57 36 127 70 159 80 186 101 220 170 27 55 28 64 32 240 3 164 5 182 20 178 9
-3 45 -10 81 -16z m1673 -1611 c44 -12 102 -60 124 -103 40 -78 8 -193 -69
-243 -35 -24 -52 -28 -108 -28 -57 0 -73 4 -108 29 -128 88 -101 289 44 341
48 17 68 18 117 4z"/>
</g>
</svg>
